<svg xmlns="http://www.w3.org/2000/svg" width="1920" height="1080">
  <defs>
    <linearGradient id="base" x1="0" y1="0" x2="0" y2="1">
      <stop offset="0%" stop-color="#0b0e15"/>
      <stop offset="100%" stop-color="#0a0c12"/>
    </linearGradient>
    <pattern id="iso" width="60" height="60" patternUnits="userSpaceOnUse">
      <path d="M0 30 L30 15 L60 30 L30 45 Z" fill="none" stroke="#1d2230" stroke-width="1"/>
    </pattern>
    <g id="rook">
      <rect x="30" y="18" width="40" height="10" fill="#fff" opacity=".08"/>
      <rect x="36" y="28" width="28" height="8" fill="#fff" opacity=".08"/>
      <rect x="32" y="36" width="36" height="28" fill="#fff" opacity=".07"/>
      <rect x="28" y="64" width="44" height="10" fill="#fff" opacity=".06"/>
    </g>
    <g id="bishop">
      <path d="M54 14 a12 12 0 1 1 -0.1 0z" fill="#fff" opacity=".09"/>
      <rect x="48" y="30" width="12" height="20" rx="6" fill="#fff" opacity=".07"/>
      <rect x="40" y="50" width="28" height="8" fill="#fff" opacity=".06"/>
      <rect x="34" y="58" width="40" height="10" fill="#fff" opacity=".06"/>
    </g>
  </defs>
  <rect width="100%" height="100%" fill="url(#base)"/>
  <rect width="100%" height="100%" fill="url(#iso)" opacity=".8"/>
  <g transform="translate(220,180) scale(6)"><use href="#rook"/></g>
  <g transform="translate(1180,320) scale(7)"><use href="#bishop"/></g>
</svg>