<svg xmlns="http://www.w3.org/2000/svg" width="1920" height="1080">
  <defs>
    <linearGradient id="grad" x1="0" y1="0" x2="1" y2="1">
      <stop offset="0%" stop-color="#0e0f13"/>
      <stop offset="50%" stop-color="#121623"/>
      <stop offset="100%" stop-color="#0a0d14"/>
    </linearGradient>
    <radialGradient id="halo" cx="70%" cy="30%" r="45%">
      <stop offset="0%" stop-color="#7dcfff" stop-opacity=".32"/>
      <stop offset="100%" stop-color="#7dcfff" stop-opacity="0"/>
    </radialGradient>
    <filter id="blur"><feGaussianBlur stdDeviation="20"/></filter>
    <g id="king">
      <path d="M50 10 h8 v8 h8 v8 h-8 v8 h-8 v-8 h-8 v-8 h8z" fill="#ffffff" opacity=".07"/>
      <path d="M40 40 h28 v8 h-28z" fill="#ffffff" opacity=".06"/>
      <path d="M34 48 h40 l-6 10 h-28z" fill="#ffffff" opacity=".06"/>
      <rect x="28" y="58" width="52" height="10" fill="#ffffff" opacity=".05"/>
    </g>
    <g id="queen">
      <circle cx="36" cy="20" r="5" fill="#ffffff" opacity=".08"/>
      <circle cx="50" cy="18" r="6" fill="#ffffff" opacity=".08"/>
      <circle cx="64" cy="20" r="5" fill="#ffffff" opacity=".08"/>
      <path d="M28 28 h44 l-8 34 h-28z" fill="#ffffff" opacity=".07"/>
      <rect x="30" y="62" width="40" height="8" fill="#ffffff" opacity=".05"/>
    </g>
  </defs>
  <rect width="100%" height="100%" fill="url(#grad)"/>
  <circle cx="1300" cy="240" r="400" fill="url(#halo)" filter="url(#blur)"/>
  <g transform="translate(200,120) scale(7)"><use href="#queen"/></g>
  <g transform="translate(1050,360) scale(8)"><use href="#king"/></g>
</svg>